<?xml version="1.0" encoding="utf-8"?>
<!-- Generator: Adobe Illustrator 26.0.2, SVG Export Plug-In . SVG Version: 6.00 Build 0)  -->
<svg version="1.1" id="Layer_1" xmlns="http://www.w3.org/2000/svg" xmlns:xlink="http://www.w3.org/1999/xlink" x="0px" y="0px"
	 viewBox="0 0 150 150" style="enable-background:new 0 0 150 150;" xml:space="preserve">
<style type="text/css">
	.st0{clip-path:url(#SVGID_00000069359192914730020640000014769916912753522104_);}
	.st1{fill:#722980;}
	.st2{fill:#FFFFFF;}
</style>
<g>
	<defs>
		<rect id="SVGID_1_" width="150" height="150"/>
	</defs>
	<clipPath id="SVGID_00000075876927011260710210000011252843211594547854_">
		<use xlink:href="#SVGID_1_"  style="overflow:visible;"/>
	</clipPath>
	<g style="clip-path:url(#SVGID_00000075876927011260710210000011252843211594547854_);">
		<path class="st1" d="M148.37,74.95c0,27.77-15.34,51.91-38.02,64.34c-10.44,5.81-22.51,9.08-35.3,9.08
			c-13.16,0-25.5-3.45-36.21-9.53C16.6,126.23,1.63,102.36,1.63,74.95c0-40.48,32.85-73.33,73.42-73.33
			C115.52,1.63,148.37,34.48,148.37,74.95z"/>
		<g>
			<path class="st2" d="M40.55,36.74v29.93l5.98-6.92l5.45,6.92V36.76c2.01,0.31,3.94,0.8,5.82,1.45v-1.87
				c-3.66-1.2-7.53-1.82-11.56-1.82c-4.05,0-7.63,0.6-10.46,1.3v1.87C37.18,37.33,38.78,36.99,40.55,36.74z"/>
			<path class="st2" d="M121.98,44.17v-5.92l-0.51-0.25c-0.3-0.14-7.36-3.49-16.94-3.49c-11.33,0-21.38,4.82-29.14,13.93
				c-7.76-9.11-17.81-13.93-29.14-13.93c-9.59,0-16.65,3.35-16.94,3.49l-0.51,0.25v5.92h-2.34v1.11V107v1.11
				c0,0,24.92-13.72,48.16,0.17c0,0,0.26,0.3,0.39,0.23c0.13,0.08,0.39-0.23,0.39-0.23c2.92-1.74,5.86-3.05,8.78-4
				c2.81,7.29,9.21,11.21,9.21,11.21h17.83c0,0,2.85-4.54,4.35-10.63c4.95,1.59,8,3.26,8,3.26V107V45.29v-1.11H121.98z M76.29,50.16
				c7.57-9.18,17.07-13.83,28.24-13.83c7.74,0,13.89,2.34,15.65,3.09v57.57c-1.27-0.59-2.54-1.1-3.82-1.57
				c-0.54-7.63-3.58-8.27-4.72-8.23c-0.04,1.04-0.09,2.04-0.15,2.9c-0.07,1.09-0.18,2-0.23,2.64c-0.06,0.64-0.12,1-0.12,1
				s-0.06-0.37-0.12-1c-0.05-0.64-0.16-1.55-0.23-2.64c-0.15-2.04-0.24-4.72-0.26-7.43c-1.38-3.56-4.48-2.83-5.64-2.4
				c-0.02,3.26-0.12,6.45-0.26,8.9c-0.07,1.37-0.18,2.51-0.24,3.31c-0.01,0.1-0.01,0.17-0.02,0.26c-0.06-0.01-0.13-0.01-0.2-0.02
				c-0.01-0.08-0.01-0.15-0.02-0.24c-0.06-0.8-0.17-1.94-0.24-3.31c-0.16-2.74-0.26-6.4-0.26-10.06c0-0.92,0.01-1.83,0.02-2.74
				c-1.4-2.99-4.4-2.6-5.68-2.27c0.01,0.98,0.01,1.97,0.02,2.96c-0.01,2.08-0.02,4.17-0.07,6.12c-0.04,1.95-0.14,3.78-0.2,5.34
				c-0.06,1.56-0.18,2.87-0.23,3.78c-0.01,0.15-0.02,0.28-0.03,0.4c-0.06,0-0.11,0.01-0.17,0.01c-0.01-0.13-0.02-0.26-0.03-0.42
				c-0.05-0.91-0.17-2.21-0.23-3.78c-0.05-1.56-0.16-3.39-0.2-5.34c-0.05-1.95-0.06-4.04-0.07-6.12c0.01-2.08,0.02-4.17,0.08-6.12
				c0.04-1.95,0.14-3.78,0.2-5.34c0.02-0.56,0.05-1.06,0.08-1.55c-0.02-0.12-0.05-0.23-0.08-0.35c4.58-1.14,10.02-1.56,16.19-0.35
				l0.36-1.82c-6.52-1.28-12.27-0.83-17.11,0.4c-0.6-1.29-1.56-2.09-3.11-2.09c-1.48,0-2.42,1.73-3,4.2
				c-6.69,2.95-10.49,6.84-10.56,6.91l1.34,1.28c0.06-0.06,3.21-3.28,8.81-5.98c-0.74,5.2-0.46,12.01-0.37,14.34
				c0.13,3.29,0.2,10.92,0.22,13.35c-0.04,0.01-0.09,0.02-0.13,0.04l-2.02-10.76c-1.02-0.07-4.77,3.27-4.81,13.12
				c-2.97,1.3-5.21,2.65-6.56,3.55V52.54v-2.03V50.16z M30.59,39.41c1.3-0.55,4.83-1.94,9.95-2.67c2.83-0.4,8.61-0.43,11.43,0.03
				c8.8,1.43,16.27,5.83,22.5,13.39v1.09v1.3v47.35c-3.37-2.27-12.3-7.34-24.49-7.34c-6.54,0-13.06,1.49-19.4,4.43V39.41z
				 M75.39,105.4c0,0-16.16-14.09-45.69-3.24v-2.74l0.4-0.2c6.5-3.23,13.19-4.87,19.9-4.87c14.7,0,24.73,7.92,24.83,8l0.57,0.64
				l0.56-0.64c0.05-0.04,2.58-2.04,6.94-4.04c0.05,1.1,0.21,2.14,0.43,3.14C78.24,103.34,75.39,105.4,75.39,105.4z M116.29,100.58
				c0.09-0.89,0.16-1.79,0.16-2.7c0-0.18-0.01-0.34-0.01-0.52c1.42,0.55,2.84,1.16,4.24,1.86l0.4,0.2v2.74
				C119.45,101.55,117.86,101.03,116.29,100.58z"/>
			<path class="st2" d="M113.23,46.32l0.36-1.82c-20.63-4.06-33.65,9.29-33.78,9.43l1.34,1.28C81.27,55.08,93.63,42.46,113.23,46.32
				z"/>
			<path class="st2" d="M113.23,54.83l0.36-1.82c-20.63-4.06-33.65,9.29-33.78,9.43l1.34,1.28C81.27,63.59,93.63,50.97,113.23,54.83
				z"/>
		</g>
	</g>
</g>
</svg>
