<?xml version="1.0" encoding="utf-8"?>
<!-- Generator: Adobe Illustrator 26.0.2, SVG Export Plug-In . SVG Version: 6.00 Build 0)  -->
<svg version="1.1" id="Layer_1" xmlns="http://www.w3.org/2000/svg" xmlns:xlink="http://www.w3.org/1999/xlink" x="0px" y="0px"
	 viewBox="0 0 150 150" style="enable-background:new 0 0 150 150;" xml:space="preserve">
<style type="text/css">
	.st0{clip-path:url(#SVGID_00000178883243402187679170000004285983558395353765_);}
	.st1{fill:none;stroke:#383838;stroke-width:1.5;stroke-miterlimit:10;}
</style>
<g>
	<defs>
		<rect id="SVGID_1_" width="150" height="150"/>
	</defs>
	<clipPath id="SVGID_00000070841472458702410300000013165154713968936894_">
		<use xlink:href="#SVGID_1_"  style="overflow:visible;"/>
	</clipPath>
	<g style="clip-path:url(#SVGID_00000070841472458702410300000013165154713968936894_);">
		<path class="st1" d="M148.53,74.95c0,27.83-15.37,52.02-38.11,64.48c-10.46,5.82-22.56,9.09-35.38,9.09
			c-13.19,0-25.56-3.46-36.29-9.55C16.47,126.34,1.47,102.42,1.47,74.95c0-40.56,32.92-73.49,73.58-73.49
			C115.61,1.47,148.53,34.39,148.53,74.95z"/>
		<g>
			<path class="st1" d="M40.47,36.65v30l5.99-6.93l5.47,6.93V36.68c2.01,0.31,3.95,0.81,5.84,1.45v-1.87
				c-3.67-1.2-7.54-1.82-11.58-1.82c-4.05,0-7.65,0.6-10.48,1.3v1.88C37.1,37.25,38.7,36.91,40.47,36.65z"/>
			<path class="st1" d="M122.08,44.11v-5.93l-0.51-0.25c-0.3-0.14-7.37-3.5-16.98-3.5c-11.36,0-21.43,4.83-29.2,13.96
				c-7.77-9.13-17.84-13.96-29.2-13.96c-9.61,0-16.68,3.35-16.98,3.5l-0.51,0.25v5.93h-2.35v1.11v61.84v1.11
				c0,0,24.97-13.75,48.27,0.17c0,0,0.26,0.31,0.39,0.23c0.13,0.08,0.39-0.23,0.39-0.23c2.92-1.75,5.87-3.06,8.79-4.01
				c2.82,7.3,9.23,11.23,9.23,11.23h17.87c0,0,2.86-4.55,4.36-10.66c4.96,1.59,8.02,3.27,8.02,3.27v-1.11V45.22v-1.11H122.08z
				 M76.29,50.1c7.58-9.2,17.1-13.86,28.3-13.86c7.75,0,13.92,2.34,15.69,3.09v57.69c-1.27-0.59-2.55-1.1-3.83-1.58
				c-0.54-7.65-3.59-8.29-4.73-8.25c-0.04,1.05-0.09,2.04-0.16,2.9c-0.07,1.09-0.18,2.01-0.23,2.64c-0.06,0.64-0.12,1-0.12,1
				s-0.06-0.37-0.12-1c-0.05-0.64-0.16-1.55-0.23-2.64c-0.15-2.04-0.24-4.73-0.26-7.45c-1.39-3.57-4.49-2.83-5.66-2.4
				c-0.02,3.27-0.12,6.46-0.26,8.92c-0.07,1.37-0.18,2.52-0.24,3.32c-0.01,0.1-0.01,0.17-0.02,0.26c-0.06-0.01-0.13-0.01-0.2-0.02
				c-0.01-0.08-0.01-0.15-0.02-0.24c-0.06-0.8-0.17-1.95-0.24-3.32c-0.16-2.75-0.26-6.41-0.26-10.08c0-0.92,0.01-1.84,0.02-2.74
				c-1.41-2.99-4.41-2.61-5.69-2.28c0.01,0.98,0.01,1.97,0.02,2.97c-0.01,2.09-0.02,4.18-0.07,6.13c-0.04,1.96-0.14,3.79-0.2,5.35
				c-0.06,1.57-0.18,2.87-0.23,3.79c-0.01,0.15-0.02,0.28-0.03,0.41c-0.06,0-0.11,0.01-0.17,0.01c-0.01-0.13-0.02-0.26-0.03-0.42
				c-0.05-0.91-0.17-2.22-0.23-3.79c-0.05-1.57-0.16-3.39-0.2-5.35c-0.05-1.96-0.06-4.05-0.07-6.13c0.01-2.09,0.02-4.18,0.08-6.13
				c0.04-1.96,0.14-3.79,0.2-5.35c0.02-0.56,0.05-1.07,0.08-1.55c-0.02-0.12-0.05-0.23-0.08-0.35c4.59-1.15,10.05-1.57,16.23-0.35
				l0.36-1.82c-6.53-1.29-12.3-0.83-17.14,0.4c-0.6-1.29-1.56-2.1-3.12-2.1c-1.49,0-2.42,1.73-3.01,4.21
				c-6.71,2.96-10.51,6.86-10.58,6.93l1.34,1.28c0.06-0.06,3.22-3.29,8.83-5.99c-0.74,5.21-0.46,12.04-0.37,14.37
				c0.13,3.3,0.2,10.95,0.22,13.38c-0.04,0.01-0.09,0.02-0.13,0.04l-2.03-10.78c-1.02-0.07-4.78,3.28-4.82,13.15
				c-2.98,1.3-5.22,2.66-6.57,3.56V52.49v-2.03V50.1z M30.5,39.33c1.31-0.55,4.84-1.94,9.97-2.68c2.84-0.41,8.63-0.43,11.46,0.03
				c8.82,1.43,16.3,5.84,22.55,13.42v1.09v1.3v47.45c-3.38-2.27-12.32-7.36-24.54-7.36c-6.55,0-13.09,1.49-19.44,4.44V39.33z
				 M75.39,105.47c0,0-16.2-14.12-45.79-3.25v-2.75l0.4-0.2c6.51-3.24,13.22-4.88,19.94-4.88c14.73,0,24.78,7.94,24.88,8.02
				l0.57,0.64l0.57-0.64c0.05-0.04,2.59-2.05,6.96-4.05c0.05,1.1,0.21,2.14,0.43,3.14C78.24,103.4,75.39,105.47,75.39,105.47z
				 M116.38,100.63c0.09-0.89,0.16-1.79,0.16-2.7c0-0.19-0.01-0.35-0.01-0.52c1.43,0.55,2.84,1.16,4.25,1.86l0.4,0.2v2.75
				C119.55,101.6,117.95,101.08,116.38,100.63z"/>
			<path class="st1" d="M113.32,46.26l0.36-1.82C93,40.36,79.95,53.75,79.82,53.88l1.34,1.28C81.29,55.04,93.67,42.39,113.32,46.26z
				"/>
			<path class="st1" d="M113.32,54.78l0.36-1.82C93,48.89,79.95,62.28,79.82,62.41l1.34,1.28C81.29,63.57,93.67,50.91,113.32,54.78z
				"/>
		</g>
	</g>
</g>
</svg>
