<?xml version="1.0" encoding="utf-8"?>
<!-- Generator: Adobe Illustrator 26.0.2, SVG Export Plug-In . SVG Version: 6.00 Build 0)  -->
<svg version="1.1" id="Layer_1" xmlns="http://www.w3.org/2000/svg" xmlns:xlink="http://www.w3.org/1999/xlink" x="0px" y="0px"
	 viewBox="0 0 150 150" style="enable-background:new 0 0 150 150;" xml:space="preserve">
<style type="text/css">
	.st0{clip-path:url(#SVGID_00000174569837150522645910000005601071312114981301_);}
</style>
<g>
	<defs>
		<rect id="SVGID_1_" width="150" height="150"/>
	</defs>
	<clipPath id="SVGID_00000164498990189857769690000001368648161146678687_">
		<use xlink:href="#SVGID_1_"  style="overflow:visible;"/>
	</clipPath>
	<g style="clip-path:url(#SVGID_00000164498990189857769690000001368648161146678687_);">
		<path d="M117.66,2.75c2.99,0.75,6.13,1.15,8.96,2.31c11.27,4.61,18.31,12.97,20.05,25.04c2.04,14.21-3.43,25.3-15.63,32.86
			c-11.47,7.11-27.52,5.4-37.51-3.72c-8.08-7.38-11.8-16.58-10.74-27.4C84.16,17.8,93.85,7.01,107.61,3.61
			c1.45-0.36,2.94-0.58,4.41-0.86C113.89,2.75,115.78,2.75,117.66,2.75z M104.7,32.53c-2.01,1.97-3.8,3.73-5.42,5.32
			c3.69,3.7,7.49,7.52,11.1,11.15c6.71-6.71,13.51-13.51,20.08-20.07c-1.66-1.67-3.44-3.45-5.32-5.34
			c-4.82,4.82-9.76,9.76-14.82,14.83C108.36,36.37,106.42,34.34,104.7,32.53z"/>
		<path d="M74.74,35.25c0.71,14.98,7.02,26.65,19.82,34.22c12.8,7.57,26.06,7.38,39.51,0.86c-2.79,12.34-5.55,24.54-8.34,36.85
			c-0.58,0-1.09,0-1.6,0c-26.95,0-53.9-0.01-80.85,0.03c-1.32,0-1.7-0.44-1.98-1.64c-6.04-26.32-12.13-52.62-18.19-78.94
			c-0.25-1.07-0.71-1.63-1.79-1.99c-5.66-1.88-11.28-3.85-16.92-5.8c-0.44-0.15-0.87-0.32-1.49-0.55C4.63,13.3,6.33,8.35,8.07,3.25
			c0.5,0.14,0.94,0.23,1.36,0.38C18,6.57,26.56,9.54,35.15,12.44c0.94,0.32,1.31,0.81,1.52,1.74c1.49,6.6,3.03,13.18,4.56,19.77
			c0.09,0.4,0.23,0.8,0.37,1.31C52.61,35.25,63.6,35.25,74.74,35.25z"/>
		<path d="M73.49,131.65c-0.21,8.93-7.37,15.81-16.23,15.6c-8.67-0.2-15.48-7.44-15.28-16.23c0.2-8.62,7.45-15.54,16.06-15.33
			C66.7,115.89,73.69,123.12,73.49,131.65z"/>
		<path d="M93.93,131.5c-0.02-8.7,7.05-15.81,15.74-15.83c8.66-0.01,15.81,7.1,15.83,15.77c0.02,8.66-7.1,15.8-15.77,15.81
			C101.02,147.27,93.95,140.22,93.93,131.5z"/>
	</g>
</g>
</svg>
