<?xml version="1.0" encoding="utf-8"?>
<!-- Generator: Adobe Illustrator 26.0.2, SVG Export Plug-In . SVG Version: 6.00 Build 0)  -->
<svg version="1.1" id="Layer_1" xmlns="http://www.w3.org/2000/svg" xmlns:xlink="http://www.w3.org/1999/xlink" x="0px" y="0px"
	 viewBox="0 0 150 150" style="enable-background:new 0 0 150 150;" xml:space="preserve">
<style type="text/css">
	.st0{clip-path:url(#SVGID_00000059280428270709351490000017212006808351180694_);}
	.st1{fill:#722980;}
	.st2{fill:#FFFFFF;}
	.st3{fill:#FCFDFF;}
</style>
<g>
	<defs>
		<rect id="SVGID_1_" width="150" height="150"/>
	</defs>
	<clipPath id="SVGID_00000103962333142816935580000011723214316061148584_">
		<use xlink:href="#SVGID_1_"  style="overflow:visible;"/>
	</clipPath>
	<g style="clip-path:url(#SVGID_00000103962333142816935580000011723214316061148584_);">
		<path class="st1" d="M147.31,74.96c0,27.37-15.11,51.16-37.47,63.41c-10.29,5.72-22.18,8.94-34.79,8.94
			c-12.97,0-25.13-3.4-35.68-9.39C17.45,125.49,2.69,101.96,2.69,74.96c0-39.89,32.38-72.26,72.35-72.26
			C114.93,2.69,147.31,35.07,147.31,74.96z"/>
		<g>
			<path class="st2" d="M25.61,52.51l2.99,1.03v25.33c-0.84,0.35-1.43,1.18-1.43,2.15c0,0.71,0.33,1.34,0.83,1.77
				c-1.11,0.75-1.89,2.28-1.89,4.06v8.1h6.78v-8.1c0-1.79-0.77-3.32-1.89-4.06c0.5-0.43,0.83-1.06,0.83-1.77
				c0-0.97-0.59-1.8-1.43-2.15V54.16l3.54,1.22v-2.87H25.61z"/>
		</g>
		<polygon class="st2" points="126.67,51.72 75,35.91 23.33,51.72 28.6,53.54 30.41,54.16 44.27,58.93 44.27,58.93 75,69.52 
			105.73,58.93 105.73,58.93 		"/>
		<path class="st3" d="M75,78.17l-1.02-0.31l-29.71-8.91V104c0,5.58,13.76,10.1,30.73,10.1s30.73-4.52,30.73-10.1V68.96l-29.71,8.91
			L75,78.17z"/>
	</g>
</g>
</svg>
