<?xml version="1.0" encoding="utf-8"?>
<!-- Generator: Adobe Illustrator 26.0.2, SVG Export Plug-In . SVG Version: 6.00 Build 0)  -->
<svg version="1.1" id="Layer_1" xmlns="http://www.w3.org/2000/svg" xmlns:xlink="http://www.w3.org/1999/xlink" x="0px" y="0px"
	 viewBox="0 0 150 150" style="enable-background:new 0 0 150 150;" xml:space="preserve">
<style type="text/css">
	.st0{clip-path:url(#SVGID_00000049185588955930396040000010487254719575864233_);}
	.st1{fill:#722980;}
	.st2{fill:#FFFFFF;}
</style>
<g>
	<defs>
		<rect id="SVGID_1_" width="150" height="150"/>
	</defs>
	<clipPath id="SVGID_00000093880040002255869000000008521364127584114100_">
		<use xlink:href="#SVGID_1_"  style="overflow:visible;"/>
	</clipPath>
	<g style="clip-path:url(#SVGID_00000093880040002255869000000008521364127584114100_);">
		<g>
			<path class="st1" d="M74.48,148.76L74.48,148.76c-40.74,0-73.76-33.02-73.76-73.76v0c0-40.74,33.02-73.76,73.76-73.76h0
				c40.74,0,73.76,33.02,73.76,73.76v0C148.25,115.74,115.22,148.76,74.48,148.76z"/>
		</g>
		<g>
			<g>
				<path class="st2" d="M103.25,108.56H45.72c-6.32,0-11.45-5.14-11.45-11.45V79.15c0-2.27,1.84-4.12,4.12-4.12
					c2.27,0,4.12,1.84,4.12,4.12v17.96c0,1.77,1.44,3.22,3.22,3.22h57.53c1.77,0,3.22-1.44,3.22-3.22V79.15
					c0-2.27,1.84-4.12,4.12-4.12c2.27,0,4.12,1.84,4.12,4.12v17.96C114.7,103.43,109.57,108.56,103.25,108.56z"/>
			</g>
			<path class="st2" d="M95.15,62.07c-1.69-1.53-4.29-1.39-5.82,0.3l-8.83,9.78v-26.6c0-3.32-2.69-6.02-6.02-6.02
				c-3.32,0-6.02,2.69-6.02,6.02v26.6l-8.83-9.78c-1.52-1.69-4.13-1.82-5.82-0.3c-1.69,1.52-1.82,4.13-0.3,5.82l17.9,19.84
				c0.78,0.87,1.89,1.36,3.06,1.36c1.17,0,2.28-0.49,3.06-1.36l17.91-19.84C96.97,66.2,96.84,63.59,95.15,62.07z"/>
		</g>
	</g>
</g>
</svg>
