<?xml version="1.0" encoding="utf-8"?>
<!-- Generator: Adobe Illustrator 26.0.2, SVG Export Plug-In . SVG Version: 6.00 Build 0)  -->
<svg version="1.1" id="Layer_1" xmlns="http://www.w3.org/2000/svg" xmlns:xlink="http://www.w3.org/1999/xlink" x="0px" y="0px"
	 viewBox="0 0 150 150" style="enable-background:new 0 0 150 150;" xml:space="preserve">
<style type="text/css">
	.st0{clip-path:url(#SVGID_00000103231311060688066080000013530097732849050021_);}
	.st1{fill:none;stroke:#383838;stroke-width:2;stroke-miterlimit:10;}
</style>
<g>
	<defs>
		<rect id="SVGID_1_" width="150" height="150"/>
	</defs>
	<clipPath id="SVGID_00000042707412683393497380000013042229454965941435_">
		<use xlink:href="#SVGID_1_"  style="overflow:visible;"/>
	</clipPath>
	<g style="clip-path:url(#SVGID_00000042707412683393497380000013042229454965941435_);">
		<g>
			<path class="st1" d="M75,148.94L75,148.94c-40.83,0-73.94-33.1-73.94-73.94v0C1.06,34.17,34.17,1.06,75,1.06h0
				c40.83,0,73.94,33.1,73.94,73.94v0C148.94,115.83,115.83,148.94,75,148.94z"/>
		</g>
		<g>
			<g>
				<path class="st1" d="M103.83,108.64H46.17c-6.33,0-11.48-5.15-11.48-11.48v-18c0-2.28,1.85-4.13,4.13-4.13s4.13,1.85,4.13,4.13
					v18c0,1.78,1.45,3.22,3.23,3.22h57.67c1.78,0,3.23-1.45,3.23-3.22v-18c0-2.28,1.85-4.13,4.13-4.13c2.28,0,4.13,1.85,4.13,4.13
					v18C115.32,103.49,110.16,108.64,103.83,108.64z"/>
			</g>
			<path class="st1" d="M95.71,62.04c-1.69-1.53-4.3-1.39-5.83,0.3l-8.85,9.81V45.49c0-3.33-2.7-6.03-6.03-6.03
				c-3.33,0-6.03,2.7-6.03,6.03v26.66l-8.85-9.81c-1.53-1.69-4.14-1.83-5.83-0.3c-1.69,1.53-1.83,4.14-0.3,5.83l17.95,19.89
				c0.78,0.87,1.9,1.36,3.06,1.36c1.17,0,2.28-0.49,3.06-1.36l17.95-19.89C97.54,66.18,97.41,63.57,95.71,62.04z"/>
		</g>
	</g>
</g>
</svg>
