<?xml version="1.0" standalone="no"?>
<!DOCTYPE svg PUBLIC "-//W3C//DTD SVG 20010904//EN"
 "http://www.w3.org/TR/2001/REC-SVG-20010904/DTD/svg10.dtd">
<svg version="1.0" xmlns="http://www.w3.org/2000/svg"
 width="30.000000pt" height="30.000000pt" viewBox="0 0 30.000000 30.000000"
 preserveAspectRatio="xMidYMid meet">

<g transform="translate(0.000000,30.000000) scale(0.100000,-0.100000)"
fill="#000000" stroke="none">
<path d="M93 250 c-34 -21 -63 -66 -63 -100 0 -54 65 -120 118 -120 57 0 122
64 122 121 0 14 -10 41 -23 60 -40 60 -97 74 -154 39z m106 -61 c41 -14 39
-26 -7 -40 -28 -8 -48 -8 -80 0 -49 14 -53 25 -14 39 37 14 63 14 101 1z m1
-74 c0 -21 -47 -36 -75 -23 -41 19 -30 34 25 34 31 0 50 -4 50 -11z"/>
</g>
</svg>
