<?xml version="1.0" encoding="utf-8"?>
<!-- Generator: Adobe Illustrator 26.0.2, SVG Export Plug-In . SVG Version: 6.00 Build 0)  -->
<svg version="1.1" id="Layer_1" xmlns="http://www.w3.org/2000/svg" xmlns:xlink="http://www.w3.org/1999/xlink" x="0px" y="0px"
	 viewBox="0 0 150 150" style="enable-background:new 0 0 150 150;" xml:space="preserve">
<style type="text/css">
	.st0{clip-path:url(#SVGID_00000039843714448770612180000006755654557973811886_);}
	.st1{fill:#722980;}
</style>
<g>
	<defs>
		<rect id="SVGID_1_" width="150" height="150"/>
	</defs>
	<clipPath id="SVGID_00000119805680347606352500000012659785608080331197_">
		<use xlink:href="#SVGID_1_"  style="overflow:visible;"/>
	</clipPath>
	<g style="clip-path:url(#SVGID_00000119805680347606352500000012659785608080331197_);">
		<g>
			<path class="st1" d="M34.19,7v13.18c0,3.54,1.66,6.87,4.5,8.98l56.66,42.39c2.3,1.72,2.3,5.18,0,6.9l-56.66,42.38
				c-2.83,2.12-4.5,5.45-4.5,8.99V143c0,3.64,4.16,5.73,7.08,3.54l89.99-67.31c2.83-2.11,2.83-6.36,0-8.47L41.27,3.46
				C38.35,1.27,34.19,3.36,34.19,7z"/>
			<path class="st1" d="M41.26,55.52l20.38,15.25c2.83,2.11,2.83,6.36,0,8.47L41.26,94.48c-2.92,2.18-7.08,0.1-7.08-3.55
				l-0.01-31.85C34.18,55.42,38.34,53.33,41.26,55.52z"/>
		</g>
	</g>
</g>
</svg>
