<?xml version="1.0" encoding="utf-8"?>
<!-- Generator: Adobe Illustrator 26.0.2, SVG Export Plug-In . SVG Version: 6.00 Build 0)  -->
<svg version="1.1" id="Layer_1" xmlns="http://www.w3.org/2000/svg" xmlns:xlink="http://www.w3.org/1999/xlink" x="0px" y="0px"
	 viewBox="0 0 150 150" style="enable-background:new 0 0 150 150;" xml:space="preserve">
<style type="text/css">
	.st0{clip-path:url(#SVGID_00000127724353744928099480000002788875466690917545_);}
	.st1{fill:#722980;}
	.st2{fill:#FFFFFF;}
</style>
<g>
	<defs>
		<rect id="SVGID_1_" width="150" height="150"/>
	</defs>
	<clipPath id="SVGID_00000096058206433969072770000008773961879391981740_">
		<use xlink:href="#SVGID_1_"  style="overflow:visible;"/>
	</clipPath>
	<g style="clip-path:url(#SVGID_00000096058206433969072770000008773961879391981740_);">
		<g>
			<path class="st1" d="M149.09,74.95c0,28.04-15.49,52.41-38.39,64.97c-10.54,5.86-22.72,9.16-35.65,9.16
				c-13.29,0-25.75-3.48-36.56-9.62C16.03,126.73,0.91,102.63,0.91,74.95c0-40.87,33.17-74.04,74.13-74.04
				C115.91,0.91,149.09,34.09,149.09,74.95z"/>
			<g>
				<path class="st2" d="M110.69,139.92c-10.54,5.86-22.72,9.16-35.65,9.16c-13.29,0-25.75-3.48-36.56-9.62
					c6.23-13.56,19.98-23,35.92-23C90.53,116.46,104.46,126.09,110.69,139.92z"/>
				<path class="st2" d="M53.18,60.6c0,12.09,9.8,21.9,21.9,21.9s21.9-9.8,21.9-21.9s-9.8-21.9-21.9-21.9S53.18,48.51,53.18,60.6z"
					/>
			</g>
		</g>
	</g>
</g>
</svg>
