<?xml version="1.0" encoding="utf-8"?>
<!-- Generator: Adobe Illustrator 26.0.2, SVG Export Plug-In . SVG Version: 6.00 Build 0)  -->
<svg version="1.1" id="Layer_1" xmlns="http://www.w3.org/2000/svg" xmlns:xlink="http://www.w3.org/1999/xlink" x="0px" y="0px"
	 viewBox="0 0 150 150" style="enable-background:new 0 0 150 150;" xml:space="preserve">
<style type="text/css">
	.st0{clip-path:url(#SVGID_00000119831588505512714890000013729397597844186277_);}
	.st1{fill:#FCBF10;}
	.st2{fill:#758790;}
</style>
<g>
	<defs>
		<rect id="SVGID_1_" width="150" height="150"/>
	</defs>
	<clipPath id="SVGID_00000165222989791825680860000018307487818037954459_">
		<use xlink:href="#SVGID_1_"  style="overflow:visible;"/>
	</clipPath>
	<g style="clip-path:url(#SVGID_00000165222989791825680860000018307487818037954459_);">
		<polygon class="st1" points="16.94,84 11.18,79.85 5.36,83.91 7.53,77.15 1.87,72.86 8.97,72.84 11.29,66.13 13.51,72.87 
			20.61,73.01 14.88,77.21 		"/>
		<polygon class="st1" points="48.82,84 43.06,79.85 37.24,83.91 39.41,77.15 33.75,72.86 40.85,72.84 43.17,66.13 45.39,72.87 
			52.49,73.01 46.76,77.21 		"/>
		<polygon class="st2" points="80.7,84 74.94,79.85 69.12,83.91 71.29,77.15 65.63,72.86 72.73,72.84 75.06,66.13 77.27,72.87 
			84.37,73.01 78.64,77.21 		"/>
		<polygon class="st2" points="112.58,84 106.83,79.85 101,83.91 103.17,77.15 97.51,72.86 104.61,72.84 106.93,66.13 109.15,72.87 
			116.25,73.01 110.52,77.21 		"/>
		<polygon class="st2" points="144.46,84 138.7,79.85 132.88,83.91 135.05,77.15 129.39,72.86 136.49,72.84 138.81,66.13 
			141.03,72.87 148.13,73.01 142.4,77.21 		"/>
	</g>
</g>
</svg>
