<?xml version="1.0" encoding="utf-8"?>
<!-- Generator: Adobe Illustrator 26.0.2, SVG Export Plug-In . SVG Version: 6.00 Build 0)  -->
<svg version="1.1" id="Layer_1" xmlns="http://www.w3.org/2000/svg" xmlns:xlink="http://www.w3.org/1999/xlink" x="0px" y="0px"
	 viewBox="0 0 150 150" style="enable-background:new 0 0 150 150;" xml:space="preserve">
<style type="text/css">
	.st0{clip-path:url(#SVGID_00000047767097005244374140000008534525344461398178_);}
	.st1{fill:none;stroke:#353535;stroke-miterlimit:10;}
	.st2{fill:#353535;}
</style>
<g>
	<defs>
		<rect id="SVGID_1_" width="150" height="150"/>
	</defs>
	<clipPath id="SVGID_00000106834791484444814560000010807985774884862636_">
		<use xlink:href="#SVGID_1_"  style="overflow:visible;"/>
	</clipPath>
	<g style="clip-path:url(#SVGID_00000106834791484444814560000010807985774884862636_);">
		<g>
			<path class="st1" d="M73.13,145.75L73.13,145.75c-39.07,0-70.75-31.67-70.75-70.74v0c0-39.07,31.67-70.74,70.74-70.74h0
				c39.07,0,70.74,31.67,70.74,70.74v0C143.88,114.07,112.21,145.75,73.13,145.75z"/>
		</g>
		<g>
			<g>
				<path class="st2" d="M100.72,107.19H45.54c-6.06,0-10.99-4.93-10.99-10.98V78.98c0-2.18,1.77-3.95,3.95-3.95
					s3.95,1.77,3.95,3.95v17.22c0,1.7,1.38,3.09,3.09,3.09h55.18c1.7,0,3.09-1.38,3.09-3.09V78.98c0-2.18,1.77-3.95,3.95-3.95
					s3.95,1.77,3.95,3.95v17.22C111.71,102.26,106.78,107.19,100.72,107.19z"/>
			</g>
			<path class="st2" d="M92.95,62.6c-1.62-1.46-4.12-1.33-5.58,0.29l-8.47,9.38V46.76c0-3.19-2.58-5.77-5.77-5.77
				c-3.19,0-5.77,2.58-5.77,5.77v25.51l-8.47-9.38c-1.46-1.62-3.96-1.75-5.58-0.29c-1.62,1.46-1.75,3.96-0.29,5.58L70.2,87.2
				c0.75,0.83,1.81,1.3,2.93,1.3c1.12,0,2.18-0.47,2.93-1.3l17.17-19.03C94.7,66.56,94.57,64.06,92.95,62.6z"/>
		</g>
	</g>
</g>
</svg>
